# xmcd
#
# Track frame offsets: 
#        150
#        26150
#        57350
#        80375
#        96200
#        119600
#        147875
#        179725
#        192112
#        222022
#        255125
#        277422
#
# Disc length: 3802 seconds
#
# Revision: 3
# Processed by: cddbd v1.5.2PL0 Copyright (c) Steve Scherf et al.
# Submitted via: ExactAudioCopy v0.95a5
#
DISCID=b20ed80c
DTITLE=Juraj Galan and Norbert Drömling - Playing for Love
DYEAR=1987
DGENRE=Jazz
TTITLE0=Stiletto
TTITLE1=Playing for Love
TTITLE2=Borsalino
TTITLE3=Interlude Nr. 1
TTITLE4=Patras
TTITLE5=Unity Village
TTITLE6=Sleep Walker
TTITLE7=Interlude Nr. 2
TTITLE8=Cafe Ole
TTITLE9=La Gandulita
TTITLE10=Encore
TTITLE11=Interlude Nr. 3
EXTD=
EXTT0=
EXTT1=
EXTT2=
EXTT3=
EXTT4=
EXTT5=
EXTT6=
EXTT7=
EXTT8=
EXTT9=
EXTT10=
EXTT11=
PLAYORDER=
